<mxfile host="app.diagrams.net" modified="2021-03-03T12:45:01.404Z" agent="5.0 (Macintosh; Intel Mac OS X 10_12_6) AppleWebKit/537.36 (KHTML, like Gecko) Chrome/88.0.4324.192 Safari/537.36" etag="2vV5K_2uzEdybHC4QbiT" version="14.4.3" type="github">
  <diagram name="Page-1" id="c7558073-3199-34d8-9f00-42111426c3f3">
    <mxGraphModel dx="946" dy="614" grid="1" gridSize="10" guides="1" tooltips="1" connect="1" arrows="1" fold="1" page="1" pageScale="1" pageWidth="826" pageHeight="1169" background="#ffffff" math="0" shadow="0">
      <root>
        <mxCell id="0" />
        <mxCell id="1" parent="0" />
        <mxCell id="3" value="duse-api" style="whiteSpace=wrap;align=center;verticalAlign=middle;fontStyle=1;strokeWidth=3;fillColor=#FFFFCC" parent="1" vertex="1">
          <mxGeometry x="400" y="100" width="90" height="60" as="geometry" />
        </mxCell>
        <mxCell id="12" value="scene-order-manager" style="whiteSpace=wrap;align=center;verticalAlign=middle;fontStyle=1;strokeWidth=3;fillColor=#FFFFCC" parent="1" vertex="1">
          <mxGeometry x="310" y="220.00000000000003" width="90" height="60" as="geometry" />
        </mxCell>
        <mxCell id="36" value="" style="edgeStyle=none;noEdgeStyle=1;strokeColor=#990000;strokeWidth=2;exitX=0.5;exitY=1;exitDx=0;exitDy=0;entryX=0.578;entryY=-0.067;entryDx=0;entryDy=0;entryPerimeter=0;" parent="1" source="3" target="12" edge="1">
          <mxGeometry width="100" height="100" relative="1" as="geometry">
            <mxPoint x="20" y="250" as="sourcePoint" />
            <mxPoint x="360" y="190" as="targetPoint" />
          </mxGeometry>
        </mxCell>
        <mxCell id="2AHyTULy-DxCVsPcN3sW-122" value="&lt;span style=&quot;font-size: 12px ; background-color: rgb(248 , 249 , 250)&quot;&gt;AddOrder/Search&lt;/span&gt;" style="edgeLabel;html=1;align=center;verticalAlign=middle;resizable=0;points=[];" vertex="1" connectable="0" parent="36">
          <mxGeometry x="0.1249" y="-1" relative="1" as="geometry">
            <mxPoint x="31.98" y="9.51" as="offset" />
          </mxGeometry>
        </mxCell>
        <mxCell id="37" value="" style="edgeStyle=none;noEdgeStyle=1;strokeColor=#990000;strokeWidth=2;entryX=0;entryY=0.5;entryDx=0;entryDy=0;exitX=1;exitY=0.25;exitDx=0;exitDy=0;" parent="1" source="4" target="12" edge="1">
          <mxGeometry width="100" height="100" relative="1" as="geometry">
            <mxPoint x="280" y="190" as="sourcePoint" />
            <mxPoint x="290" y="225" as="targetPoint" />
          </mxGeometry>
        </mxCell>
        <mxCell id="2AHyTULy-DxCVsPcN3sW-97" value="Redis" style="shape=cylinder3;whiteSpace=wrap;html=1;boundedLbl=1;backgroundOutline=1;size=15;fillColor=#dae8fc;strokeColor=#6c8ebf;" vertex="1" parent="1">
          <mxGeometry x="415" y="420" width="60" height="80" as="geometry" />
        </mxCell>
        <mxCell id="4" value="prematch-dispatch" style="whiteSpace=wrap;align=center;verticalAlign=middle;fontStyle=1;strokeWidth=3;fillColor=#FFFFCC" parent="1" vertex="1">
          <mxGeometry x="150" y="220" width="90" height="60" as="geometry" />
        </mxCell>
        <mxCell id="2AHyTULy-DxCVsPcN3sW-101" value="scene-driver-manager" style="whiteSpace=wrap;align=center;verticalAlign=middle;fontStyle=1;strokeWidth=3;fillColor=#FFFFCC" vertex="1" parent="1">
          <mxGeometry x="470" y="220" width="90" height="60" as="geometry" />
        </mxCell>
        <mxCell id="2AHyTULy-DxCVsPcN3sW-106" value="" style="edgeStyle=none;noEdgeStyle=1;strokeColor=#990000;strokeWidth=2;exitX=0.5;exitY=1;exitDx=0;exitDy=0;entryX=0.5;entryY=0;entryDx=0;entryDy=0;" edge="1" parent="1" source="3" target="2AHyTULy-DxCVsPcN3sW-101">
          <mxGeometry width="100" height="100" relative="1" as="geometry">
            <mxPoint x="455" y="170" as="sourcePoint" />
            <mxPoint x="500" y="210" as="targetPoint" />
          </mxGeometry>
        </mxCell>
        <mxCell id="2AHyTULy-DxCVsPcN3sW-123" value="AddDriver/Search" style="edgeLabel;html=1;align=center;verticalAlign=middle;resizable=0;points=[];" vertex="1" connectable="0" parent="2AHyTULy-DxCVsPcN3sW-106">
          <mxGeometry x="0.0941" y="1" relative="1" as="geometry">
            <mxPoint x="66.39" y="-1.78" as="offset" />
          </mxGeometry>
        </mxCell>
        <mxCell id="2AHyTULy-DxCVsPcN3sW-107" value="" style="edgeStyle=none;noEdgeStyle=1;strokeColor=#990000;strokeWidth=2;entryX=0.25;entryY=0;entryDx=0;entryDy=0;" edge="1" parent="1" source="12" target="2AHyTULy-DxCVsPcN3sW-109">
          <mxGeometry width="100" height="100" relative="1" as="geometry">
            <mxPoint x="240" y="237.8571428571429" as="sourcePoint" />
            <mxPoint x="330" y="330" as="targetPoint" />
          </mxGeometry>
        </mxCell>
        <mxCell id="2AHyTULy-DxCVsPcN3sW-108" value="" style="edgeStyle=none;noEdgeStyle=1;strokeColor=#990000;strokeWidth=2;exitX=0.5;exitY=1;exitDx=0;exitDy=0;" edge="1" parent="1" source="2AHyTULy-DxCVsPcN3sW-101" target="2AHyTULy-DxCVsPcN3sW-109">
          <mxGeometry width="100" height="100" relative="1" as="geometry">
            <mxPoint x="250" y="247.8571428571429" as="sourcePoint" />
            <mxPoint x="440" y="350" as="targetPoint" />
            <Array as="points" />
          </mxGeometry>
        </mxCell>
        <mxCell id="2AHyTULy-DxCVsPcN3sW-109" value="scene-pool" style="whiteSpace=wrap;align=center;verticalAlign=middle;fontStyle=1;strokeWidth=3;fillColor=#FFFFCC" vertex="1" parent="1">
          <mxGeometry x="400" y="320" width="90" height="60" as="geometry" />
        </mxCell>
        <mxCell id="2AHyTULy-DxCVsPcN3sW-110" value="" style="edgeStyle=none;noEdgeStyle=1;strokeColor=#990000;strokeWidth=2;entryX=0.5;entryY=0;entryDx=0;entryDy=0;entryPerimeter=0;exitX=0.5;exitY=1;exitDx=0;exitDy=0;" edge="1" parent="1" source="2AHyTULy-DxCVsPcN3sW-109" target="2AHyTULy-DxCVsPcN3sW-97">
          <mxGeometry width="100" height="100" relative="1" as="geometry">
            <mxPoint x="393.92857142857133" y="290" as="sourcePoint" />
            <mxPoint x="432.5" y="330" as="targetPoint" />
          </mxGeometry>
        </mxCell>
        <mxCell id="2AHyTULy-DxCVsPcN3sW-112" value="" style="edgeStyle=none;noEdgeStyle=1;strokeColor=#990000;strokeWidth=2;entryX=0;entryY=0.5;entryDx=0;entryDy=0;exitX=1.022;exitY=0.867;exitDx=0;exitDy=0;exitPerimeter=0;" edge="1" parent="1" source="4" target="2AHyTULy-DxCVsPcN3sW-101">
          <mxGeometry width="100" height="100" relative="1" as="geometry">
            <mxPoint x="240" y="260" as="sourcePoint" />
            <mxPoint x="320" y="260" as="targetPoint" />
          </mxGeometry>
        </mxCell>
        <mxCell id="2AHyTULy-DxCVsPcN3sW-117" value="" style="edgeStyle=none;noEdgeStyle=1;strokeColor=#990000;strokeWidth=2;exitX=0.5;exitY=1;exitDx=0;exitDy=0;entryX=0.5;entryY=0;entryDx=0;entryDy=0;" edge="1" parent="1" source="4" target="4">
          <mxGeometry width="100" height="100" relative="1" as="geometry">
            <mxPoint x="250" y="245" as="sourcePoint" />
            <mxPoint x="260" y="200" as="targetPoint" />
            <Array as="points">
              <mxPoint x="195" y="310" />
              <mxPoint x="160" y="310" />
              <mxPoint x="120" y="310" />
              <mxPoint x="120" y="260" />
              <mxPoint x="120" y="200" />
              <mxPoint x="195" y="200" />
            </Array>
          </mxGeometry>
        </mxCell>
        <mxCell id="2AHyTULy-DxCVsPcN3sW-119" value="" style="edgeStyle=none;noEdgeStyle=1;strokeColor=#990000;strokeWidth=2;entryX=0.578;entryY=-0.05;entryDx=0;entryDy=0;entryPerimeter=0;" edge="1" parent="1" target="4">
          <mxGeometry width="100" height="100" relative="1" as="geometry">
            <mxPoint x="440" y="160" as="sourcePoint" />
            <mxPoint x="372.02" y="225.98000000000002" as="targetPoint" />
          </mxGeometry>
        </mxCell>
        <mxCell id="2AHyTULy-DxCVsPcN3sW-120" value="AddOrder/AddDriver" style="text;html=1;align=center;verticalAlign=middle;resizable=0;points=[];autosize=1;" vertex="1" parent="1">
          <mxGeometry x="260" y="170" width="120" height="20" as="geometry" />
        </mxCell>
        <mxCell id="2AHyTULy-DxCVsPcN3sW-124" value="回写索引" style="text;html=1;align=center;verticalAlign=middle;resizable=0;points=[];autosize=1;" vertex="1" parent="1">
          <mxGeometry x="240" y="220" width="60" height="20" as="geometry" />
        </mxCell>
        <mxCell id="2AHyTULy-DxCVsPcN3sW-125" value="scene-dispatch" style="whiteSpace=wrap;align=center;verticalAlign=middle;fontStyle=1;strokeWidth=3;fillColor=#FFFFCC" vertex="1" parent="1">
          <mxGeometry x="220" y="340" width="90" height="60" as="geometry" />
        </mxCell>
        <mxCell id="2AHyTULy-DxCVsPcN3sW-126" value="" style="edgeStyle=none;noEdgeStyle=1;strokeColor=#990000;strokeWidth=2;entryX=0.5;entryY=0;entryDx=0;entryDy=0;exitX=0.5;exitY=1;exitDx=0;exitDy=0;" edge="1" parent="1" source="4" target="2AHyTULy-DxCVsPcN3sW-125">
          <mxGeometry width="100" height="100" relative="1" as="geometry">
            <mxPoint x="250" y="245" as="sourcePoint" />
            <mxPoint x="320" y="260" as="targetPoint" />
          </mxGeometry>
        </mxCell>
        <mxCell id="2AHyTULy-DxCVsPcN3sW-128" value="回写索引" style="text;html=1;align=center;verticalAlign=middle;resizable=0;points=[];autosize=1;" vertex="1" parent="1">
          <mxGeometry x="240" y="270" width="60" height="20" as="geometry" />
        </mxCell>
        <mxCell id="2AHyTULy-DxCVsPcN3sW-130" value="获取DO" style="text;html=1;align=center;verticalAlign=middle;resizable=0;points=[];autosize=1;" vertex="1" parent="1">
          <mxGeometry x="230" y="300" width="60" height="20" as="geometry" />
        </mxCell>
      </root>
    </mxGraphModel>
  </diagram>
</mxfile>
